<svg xmlns="http://www.w3.org/2000/svg" viewBox="0 0 64 64">
  <!-- Shield shape -->
  <path d="M32 4 L58 14 L58 34 C58 48 46 58 32 62 C18 58 6 48 6 34 L6 14 Z"
        fill="#0e1b30"/>
  <!-- Flame - outer (red/orange) -->
  <path d="M32 52
           C32 52 20 44 20 34
           C20 28 24 26 24 26
           C24 26 23 30 26 32
           C26 32 25 26 30 22
           C30 22 29 28 32 28
           C32 28 30 24 33 20
           C33 20 33 26 36 26
           C36 26 35 22 38 22
           C38 22 42 26 42 34
           C42 44 32 52 32 52Z"
        fill="#c8102e"/>
  <!-- Flame - inner highlight (orange) -->
  <path d="M32 48
           C32 48 24 42 24 34
           C24 30 26 28 26 28
           C26 30 28 31 28 31
           C27 27 29 24 31 22
           C31 24 31 27 33 27
           C32 23 34 21 35 20
           C35 22 35 26 37 26
           C39 28 40 32 38 38
           C36 44 32 48 32 48Z"
        fill="#e8401a" opacity="0.7"/>
  <!-- Flame - tip highlight (amber) -->
  <path d="M32 28 C31 24 33 20 34 18 C34 21 33 24 35 26 C33 26 32 27 32 28Z"
        fill="#f5a623" opacity="0.8"/>
</svg>
